<?xml version="1.0" encoding="UTF-8"?>
<svg version="1.1" xmlns="http://www.w3.org/2000/svg" width="356" height="416">
<path d="M0 0 C4.24593657 0.03279522 8.49024194 0.09362486 12.7352457 0.1888659 C14.6468464 0.22873404 16.558775 0.25181346 18.47066116 0.27412891 C29.62734866 0.58539189 39.85040731 3.48342454 49.78271103 8.54833889 C50.44673935 8.88567043 51.11076767 9.22300198 51.79491806 9.57055569 C72.39201684 20.47130217 87.27518253 38.48296106 94.87255478 60.37646389 C97.72464888 70.96013839 98.2578994 81.34209137 98.46239853 92.23583889 C98.50017208 93.94808156 98.5380889 95.66032107 98.57613754 97.37255764 C98.97633927 116.56178699 98.99736807 135.75415767 98.97558212 154.94677639 C98.97102334 158.97283309 98.97102334 162.99884469 98.97558212 167.02490139 C98.99816756 187.01137009 98.97418329 207.00021591 98.57320404 226.98339748 C98.54170566 228.61515423 98.51441651 230.2469993 98.49194336 231.8789053 C98.11129899 258.04273879 90.32322073 278.21787468 71.84521103 296.98583889 C71.13751572 297.71802639 70.4298204 298.45021389 69.70067978 299.20458889 C50.81817426 317.40111428 25.82279616 321.23540063 0.73583603 321.39990139 C-1.08548195 321.41864806 -2.90679156 321.43822397 -4.72809219 321.45858669 C-9.48229374 321.50954478 -14.23652334 321.549363 -18.99084854 321.58673 C-23.85806381 321.62699958 -28.72516609 321.67798626 -33.59228897 321.72802639 C-43.11304251 321.82435458 -52.6338604 321.90889493 -62.15478897 321.98583889 C-62.79344894 323.35403774 -62.79344894 323.35403774 -63.44501114 324.74987698 C-79.57153935 359.27224083 -79.57153935 359.27224083 -88.11426163 375.95800686 C-89.46195235 378.59780817 -90.79050462 381.24680661 -92.11963272 383.89599514 C-92.98960707 385.60359716 -93.86065216 387.3106542 -94.73291397 389.01708889 C-95.12142532 389.79693142 -95.50993668 390.57677395 -95.9102211 391.38024807 C-96.2787117 392.09120632 -96.6472023 392.80216457 -97.02685928 393.53466702 C-97.50074081 394.46671963 -97.50074081 394.46671963 -97.98419571 395.41760159 C-99.44291342 397.37183762 -100.93154782 398.05188718 -103.15478897 398.98583889 C-106.29945694 394.26883693 -109.00994903 389.42939648 -111.52588272 384.35302639 C-111.86381348 383.67513058 -112.20174423 382.99723476 -112.54991531 382.29879665 C-115.31605153 376.72842243 -118.02346182 371.13021926 -120.72720718 365.52935696 C-122.96535249 360.90356693 -125.22252706 356.28718874 -127.48218155 351.67187405 C-128.64936303 349.27641759 -129.80927264 346.87892957 -130.95776749 344.47460842 C-132.63355655 340.96775498 -134.34806644 337.4805839 -136.06494522 333.99365139 C-136.57243805 332.91673031 -137.07993088 331.83980923 -137.60280228 330.73025417 C-139.96109142 325.61279181 -139.96109142 325.61279181 -143.9714241 321.89242458 C-146.03881003 321.22402912 -146.03881003 321.22402912 -149.15478897 320.98583889 C-175.28466329 314.92586804 -197.45167948 300.54252183 -212.40478897 277.86083889 C-218.91921911 266.89943248 -222.26549981 254.41191162 -222.29523087 241.67687893 C-222.29820199 240.96292509 -222.30117311 240.24897124 -222.30423427 239.51338243 C-222.31287247 237.1324444 -222.31442538 234.75155694 -222.31592178 232.37060452 C-222.32055356 230.65846558 -222.3255787 228.94632767 -222.33096695 227.23419094 C-222.34406174 222.58912664 -222.35053066 217.94407679 -222.35497761 213.29899693 C-222.35791417 210.39188984 -222.36202016 207.48478666 -222.36648178 204.57768154 C-222.38015149 195.46765776 -222.38981968 186.35764294 -222.39368367 177.24760962 C-222.39815769 166.75889897 -222.41567731 156.27031907 -222.44468427 145.78164816 C-222.46636599 137.65738141 -222.47639147 129.53315126 -222.47772479 121.40885592 C-222.47876854 116.5649029 -222.48458383 111.72107288 -222.5025444 106.87715054 C-222.51913679 102.31344897 -222.52112694 97.74996135 -222.5124054 93.1862402 C-222.51164085 91.52150044 -222.51589976 89.85674865 -222.52586365 88.19203854 C-222.60088314 74.86448579 -221.47960183 62.30959379 -215.40478897 50.17333889 C-214.87873062 49.09427273 -214.87873062 49.09427273 -214.34204483 47.99340725 C-211.54701976 42.42291155 -208.32508311 37.62942123 -204.15478897 32.98583889 C-203.17445694 31.79474514 -203.17445694 31.79474514 -202.17432022 30.57958889 C-189.27284525 15.35161843 -170.35558218 2.89685625 -150.15478897 0.98583889 C-145.52596429 0.81224372 -140.89783215 0.79055074 -136.2661171 0.76464748 C-134.85726994 0.75341465 -133.44842594 0.74178168 -132.03958511 0.72978115 C-128.21988162 0.69854238 -124.40016074 0.67335048 -120.58040428 0.64958429 C-117.36694546 0.62903968 -114.153511 0.60553221 -110.94007254 0.5820471 C-103.32579763 0.52645306 -95.71150088 0.47577029 -88.09717178 0.4282217 C-80.32513275 0.37961172 -72.55317899 0.32325371 -64.78122377 0.26280057 C-58.05541623 0.21075227 -51.32958567 0.16359645 -44.60371733 0.12011302 C-40.61160652 0.09426989 -36.61952627 0.06684559 -32.62746048 0.03473949 C-21.75094392 -0.05107424 -10.87664236 -0.07148047 0 0 Z " fill="#E5E7EB" transform="translate(248.15478897094727,12.014161109924316)"/>
<path d="M0 0 C1.09014329 -0.00785502 1.09014329 -0.00785502 2.20230967 -0.01586872 C4.63814836 -0.03087346 7.07377708 -0.03157397 9.50965881 -0.03224182 C11.25581212 -0.03986288 13.00196207 -0.04829029 14.74810791 -0.0574646 C19.4918636 -0.07941911 24.23555482 -0.08820954 28.97935557 -0.09329104 C31.94233577 -0.09693286 34.90529903 -0.10317194 37.86827278 -0.11029243 C48.20284392 -0.13478823 58.53736482 -0.14783954 68.8719635 -0.15138245 C78.50940558 -0.15501996 88.14652963 -0.18493046 97.78387445 -0.22678703 C106.05573812 -0.26145538 114.3274962 -0.27693027 122.59943205 -0.27762848 C127.54101961 -0.27842234 132.48228312 -0.28721132 137.4237957 -0.31562614 C142.07046106 -0.34174833 146.71653229 -0.34404491 151.36323738 -0.3279705 C153.0688519 -0.32615146 154.77450014 -0.33288778 156.4800415 -0.34878922 C158.80844633 -0.36917507 161.13475758 -0.358745 163.46313477 -0.34057617 C164.76596374 -0.3425875 166.06879271 -0.34459883 167.41110134 -0.3466711 C171.64940806 0.43089473 173.05520456 2.04027675 175.7950592 5.27415466 C176.3931842 5.70727966 176.9913092 6.14040466 177.6075592 6.58665466 C179.31405022 9.01166821 179.32230621 11.37046383 179.22084045 14.27024841 C178.49897946 17.6676309 176.46347845 19.22629803 173.7950592 21.27415466 C172.8050592 21.60415466 171.8150592 21.93415466 170.7950592 22.27415466 C170.7950592 22.93415466 170.7950592 23.59415466 170.7950592 24.27415466 C148.09881044 24.34424645 125.40257952 24.3971437 102.70624447 24.42959118 C92.16786009 24.44505778 81.62954298 24.4661434 71.09120178 24.50047302 C61.905616 24.53038165 52.72007894 24.54973117 43.53444582 24.55642015 C38.67105457 24.56032991 33.80780268 24.56951419 28.9444561 24.59134483 C24.3652741 24.61173304 19.78628866 24.61798372 15.20706558 24.61347771 C13.52809773 24.61430186 11.84912318 24.62025361 10.17019463 24.63177109 C7.87339595 24.64675203 5.5773342 24.64308828 3.28051758 24.63491821 C1.99645995 24.63768359 0.71240232 24.64044897 -0.61056614 24.64329815 C-4.82361456 24.21061666 -7.46443772 23.22766323 -11.2049408 21.27415466 C-12.1424408 19.08665466 -12.1424408 19.08665466 -12.2049408 17.27415466 C-12.8649408 17.27415466 -13.5249408 17.27415466 -14.2049408 17.27415466 C-14.77730405 6.35685553 -14.77730405 6.35685553 -11.2049408 2.27415466 C-7.58794085 -0.14114911 -4.26955744 0.01524479 0 0 Z " fill="#9FA3AF" transform="translate(103.20494079589844,92.72584533691406)"/>
<path d="M0 0 C1.84010902 -0.01496269 1.84010902 -0.01496269 3.71739197 -0.03022766 C5.0739287 -0.03112341 6.43046561 -0.03178701 7.78700256 -0.03224182 C9.21788973 -0.03986461 10.6487728 -0.04829231 12.07965088 -0.0574646 C15.9639313 -0.079402 19.848133 -0.0882072 23.73246837 -0.09329104 C26.15941917 -0.09693484 28.58634936 -0.10317495 31.01329231 -0.11029243 C39.48051484 -0.13478215 47.94767612 -0.14783825 56.41493225 -0.15138245 C64.30739459 -0.15501966 72.1994685 -0.18492925 80.09181207 -0.22678703 C86.86899841 -0.26147042 93.64605586 -0.27693053 100.42333037 -0.27762848 C104.47068577 -0.27842183 108.51764529 -0.28718672 112.56490898 -0.31562614 C116.37114055 -0.34177455 120.17664704 -0.34403082 123.98292732 -0.3279705 C125.37893376 -0.32615352 126.77498159 -0.33286951 128.17089844 -0.34878922 C140.04260449 -0.47591573 140.04260449 -0.47591573 143.29702759 2.69442749 C143.86227646 3.54573746 144.42752533 4.39704742 145.00990295 5.27415466 C145.44302795 5.89290466 145.87615295 6.51165466 146.32240295 7.14915466 C147.62699246 11.18152222 147.33944592 14.95598281 146.32240295 19.02415466 C144.6207396 21.94129184 143.02617802 22.77981202 140.00990295 24.27415466 C137.180933 24.65167809 137.180933 24.65167809 134.02690125 24.65510559 C132.82692001 24.66356506 131.62693878 24.67202454 130.39059448 24.68074036 C129.08241257 24.67466766 127.77423065 24.66859497 126.42640686 24.66233826 C125.02817373 24.66640553 123.62994381 24.67174829 122.23171997 24.67826843 C118.44026432 24.691932 114.64905389 24.68664678 110.85759401 24.67713118 C106.88503142 24.66952656 102.91248958 24.6765827 98.93992615 24.68128967 C92.26692443 24.68674617 85.59402235 24.67955976 78.92103577 24.66526794 C71.21556429 24.64895497 63.51033114 24.65422045 55.80486548 24.67074716 C49.18218408 24.68438106 42.55957424 24.686272 35.93688333 24.67843115 C31.98461719 24.67376336 28.03246288 24.67310483 24.08020401 24.68304062 C20.36188857 24.6917353 16.64387881 24.68564307 12.92559624 24.66835785 C10.9171579 24.66252688 8.90869358 24.67138813 6.90026855 24.68074036 C0.57021493 24.63632431 -4.48303743 24.57100268 -9.99009705 21.27415466 C-10.92759705 19.08665466 -10.92759705 19.08665466 -10.99009705 17.27415466 C-11.65009705 17.27415466 -12.31009705 17.27415466 -12.99009705 17.27415466 C-13.5624603 6.35685553 -13.5624603 6.35685553 -9.99009705 2.27415466 C-6.64933157 0.14093784 -3.91986236 0.01709312 0 0 Z " fill="#9FA3AF" transform="translate(101.99009704589844,172.72584533691406)"/>
<path d="M0 0 C0.72887889 -0.00382555 1.45775778 -0.00765109 2.2087239 -0.01159257 C4.6515822 -0.02191329 7.09420505 -0.01793228 9.53707886 -0.01396179 C11.28809832 -0.01830866 13.03911589 -0.02349173 14.79013062 -0.02944946 C19.54609611 -0.04285027 24.3019822 -0.04341716 29.05796289 -0.04088616 C33.02456551 -0.03981765 36.99115199 -0.04469651 40.95775115 -0.04949158 C50.31070337 -0.06058952 59.66361543 -0.06102191 69.01657104 -0.05497742 C78.67784867 -0.04892996 88.33898095 -0.06126756 98.00023377 -0.08254749 C106.28733537 -0.10013209 114.57439057 -0.10617001 122.86151016 -0.10290974 C127.81464647 -0.10109244 132.767679 -0.10377777 137.72079849 -0.11762428 C142.37473385 -0.1301478 147.02844141 -0.12831086 151.68237305 -0.11521339 C153.39407298 -0.11283643 155.10578868 -0.11562206 156.81747055 -0.12383652 C159.14648626 -0.13421129 161.47472425 -0.1262794 163.80371094 -0.11352539 C165.76210246 -0.113777 165.76210246 -0.113777 167.76005745 -0.1140337 C168.75494619 0.00962724 169.74983494 0.13328817 170.77487183 0.26069641 C171.76487183 1.74569641 171.76487183 1.74569641 172.77487183 3.26069641 C172.2587757 3.09845424 171.74267958 2.93621206 171.21094418 2.76905346 C168.0355274 2.10641078 165.04309048 2.13130626 161.79771423 2.12698364 C161.09545336 2.12471809 160.39319248 2.12245253 159.66965097 2.12011832 C157.31676841 2.11378877 154.9639436 2.11460701 152.61105347 2.11543274 C150.92401556 2.11244063 149.23697834 2.10903798 147.54994202 2.10525513 C142.96734102 2.09641696 138.3847587 2.09407711 133.80215001 2.09343934 C129.97749841 2.09248998 126.15285116 2.08881143 122.32820123 2.08526725 C113.30594661 2.07712364 104.28370197 2.07468295 95.26144409 2.07539368 C85.9513057 2.07599469 76.64122521 2.06543797 67.33110148 2.04965001 C59.33949862 2.0365804 51.34791471 2.03120953 43.35630125 2.03184909 C38.58250006 2.03210421 33.80875034 2.02924484 29.03495979 2.01867104 C24.54603577 2.00899962 20.05721253 2.0089043 15.56828499 2.01618767 C13.92073418 2.01723465 12.27317713 2.0148639 10.62563705 2.00882721 C8.37664345 2.00112038 6.12799904 2.00574324 3.87901306 2.01345825 C2.62043015 2.01291348 1.36184725 2.01236872 0.06512547 2.01180744 C-4.22937905 2.33666228 -7.11354977 3.03412714 -10.03762817 6.26069641 C-11.75064639 10.58832138 -11.466158 14.6632756 -11.22512817 19.26069641 C-10.56512817 19.26069641 -9.90512817 19.26069641 -9.22512817 19.26069641 C-8.89512817 20.25069641 -8.56512817 21.24069641 -8.22512817 22.26069641 C-9.54512817 21.60069641 -10.86512817 20.94069641 -12.22512817 20.26069641 C-12.22512817 19.27069641 -12.22512817 18.28069641 -12.22512817 17.26069641 C-12.88512817 17.26069641 -13.54512817 17.26069641 -14.22512817 17.26069641 C-14.79749143 6.34339727 -14.79749143 6.34339727 -11.22512817 2.26069641 C-7.60239953 -0.16211202 -4.27707442 0.00672124 0 0 Z " fill="#AFB3BB" transform="translate(103.22512817382813,92.73930358886719)"/>
<path d="M0 0 C1.84661224 -0.01062721 1.84661224 -0.01062721 3.73052979 -0.02146912 C5.09182776 -0.01917541 6.45312539 -0.01666573 7.81442261 -0.01396179 C9.25017563 -0.01830962 10.68592633 -0.023493 12.12167358 -0.02944946 C16.01816711 -0.04283949 19.91456364 -0.04341841 23.81107569 -0.04088616 C27.0619052 -0.039817 30.31271504 -0.04469814 33.56354034 -0.04949158 C41.22888845 -0.06058561 48.89418754 -0.061024 56.55953979 -0.05497742 C64.47581953 -0.04892919 72.39192191 -0.06127031 80.30817139 -0.08254749 C87.10059531 -0.10013486 93.89296261 -0.10616961 100.68540847 -0.10290974 C104.74429198 -0.10109301 108.80304882 -0.10377214 112.86191177 -0.11762428 C116.67538966 -0.13015249 120.48858962 -0.12830654 124.30206299 -0.11521339 C125.70415209 -0.11283751 127.10626046 -0.1156183 128.50832748 -0.12383652 C130.41665932 -0.13421888 132.32506962 -0.12444854 134.23339844 -0.11352539 C135.30301378 -0.11369313 136.37262913 -0.11386087 137.47465706 -0.1140337 C138.30462637 0.00962724 139.13459568 0.13328817 139.98971558 0.26069641 C140.97971558 1.74569641 140.97971558 1.74569641 141.98971558 3.26069641 C141.4485633 3.09845424 140.90741102 2.93621206 140.34986019 2.76905346 C137.58425519 2.17336335 135.05784303 2.13162388 132.22740173 2.12698364 C131.05114731 2.12271866 129.87489288 2.11845367 128.66299438 2.11405945 C126.73269379 2.11473923 126.73269379 2.11473923 124.76339722 2.11543274 C123.39162606 2.1124399 122.01985575 2.10903708 120.64808655 2.10525513 C116.92496143 2.0964244 113.2018593 2.09407742 109.47872472 2.09343934 C107.1522868 2.0927284 104.82585472 2.09059326 102.49941826 2.08794212 C94.38232935 2.07869233 86.26525685 2.07460685 78.14816284 2.07539368 C70.58302924 2.07599463 63.01796691 2.06543844 55.45285136 2.04965001 C48.95592763 2.03657428 42.45902721 2.03120978 35.96209043 2.03184909 C32.08254613 2.03210403 28.2030652 2.02925468 24.32353401 2.01867104 C20.675077 2.0089893 17.02674393 2.00891135 13.37828255 2.01618767 C11.40283737 2.01773162 9.42739221 2.00938759 7.45196533 2.00074768 C6.27289108 2.00494217 5.09381683 2.00913666 3.87901306 2.01345825 C2.34510721 2.0126411 2.34510721 2.0126411 0.78021336 2.01180744 C-3.26212808 2.37235035 -6.07425103 3.22783198 -8.82278442 6.26069641 C-10.53580264 10.58832138 -10.25131425 14.6632756 -10.01028442 19.26069641 C-9.35028442 19.26069641 -8.69028442 19.26069641 -8.01028442 19.26069641 C-7.68028442 20.25069641 -7.35028442 21.24069641 -7.01028442 22.26069641 C-8.33028442 21.60069641 -9.65028442 20.94069641 -11.01028442 20.26069641 C-11.01028442 19.27069641 -11.01028442 18.28069641 -11.01028442 17.26069641 C-11.67028442 17.26069641 -12.33028442 17.26069641 -13.01028442 17.26069641 C-13.58264768 6.34339727 -13.58264768 6.34339727 -10.01028442 2.26069641 C-6.66227289 0.11967255 -3.92931291 0.00753606 0 0 Z " fill="#AFB3BB" transform="translate(102.01028442382813,172.7393035888672)"/>
<path d="M0 0 C0 0.66 0 1.32 0 2 C-0.61875 2.45375 -1.2375 2.9075 -1.875 3.375 C-4.24562111 5.18782791 -4.91942472 6.25032184 -6 9 C-6.24029959 11.59154919 -6.24029959 11.59154919 -6.125 14.25 C-6.10695313 15.14203125 -6.08890625 16.0340625 -6.0703125 16.953125 C-6.04710938 17.62859375 -6.02390625 18.3040625 -6 19 C-5.34 19 -4.68 19 -4 19 C-3.67 19.99 -3.34 20.98 -3 22 C-4.32 21.34 -5.64 20.68 -7 20 C-7 19.01 -7 18.02 -7 17 C-7.66 17 -8.32 17 -9 17 C-9.57236326 6.08270086 -9.57236326 6.08270086 -6 2 C-3.80010103 0.60006429 -2.60233337 0 0 0 Z " fill="#C7CAD1" transform="translate(98,173)"/>
<path d="M0 0 C0 0.66 0 1.32 0 2 C-0.61875 2.45375 -1.2375 2.9075 -1.875 3.375 C-4.24562111 5.18782791 -4.91942472 6.25032184 -6 9 C-6.24029959 11.59154919 -6.24029959 11.59154919 -6.125 14.25 C-6.10695313 15.14203125 -6.08890625 16.0340625 -6.0703125 16.953125 C-6.04710938 17.62859375 -6.02390625 18.3040625 -6 19 C-5.34 19 -4.68 19 -4 19 C-3.67 19.99 -3.34 20.98 -3 22 C-4.32 21.34 -5.64 20.68 -7 20 C-7 19.01 -7 18.02 -7 17 C-7.66 17 -8.32 17 -9 17 C-9.57236326 6.08270086 -9.57236326 6.08270086 -6 2 C-3.80010103 0.60006429 -2.60233337 0 0 0 Z " fill="#C7CAD1" transform="translate(98,93)"/>
<path d="M0 0 C0 3 0 3 -1.56054688 4.90112305 C-2.27275391 5.59761963 -2.98496094 6.29411621 -3.71875 7.01171875 C-4.48574219 7.76904297 -5.25273438 8.52636719 -6.04296875 9.30664062 C-6.85378906 10.09232422 -7.66460937 10.87800781 -8.5 11.6875 C-9.31082031 12.48478516 -10.12164062 13.28207031 -10.95703125 14.10351562 C-12.96482203 16.0758748 -14.9792687 18.04091492 -17 20 C-17 15.59206469 -14.19898652 13.59111129 -11.3125 10.5625 C-10.51682617 9.70301758 -10.51682617 9.70301758 -9.70507812 8.82617188 C-6.66424545 5.58386072 -3.55839592 2.68695202 0 0 Z " fill="#F0F0F1" transform="translate(59,30)"/>
<path d="M0 0 C0.99 0 1.98 0 3 0 C4.90608098 3.21182149 5.22266247 5.53882603 5.125 9.25 C5.10695312 10.14203125 5.08890625 11.0340625 5.0703125 11.953125 C5.03550781 12.96632812 5.03550781 12.96632812 5 14 C4.01 14.33 3.02 14.66 2 15 C2.03480469 14.12988281 2.03480469 14.12988281 2.0703125 13.2421875 C2.18250423 8.38588834 1.87514915 4.57067605 0 0 Z " fill="#C8CBD4" transform="translate(246,176)"/>
<path d="M0 0 C0.99 0.33 1.98 0.66 3 1 C0.69 5.62 -1.62 10.24 -4 15 C-5 11 -5 11 -4 8 C-3.34 8 -2.68 8 -2 8 C-1.855625 7.236875 -1.71125 6.47375 -1.5625 5.6875 C-1 3 -1 3 0 0 Z " fill="#F2F3F6" transform="translate(170,361)"/>
<path d="M0 0 C0.99 0 1.98 0 3 0 C4.83068697 3.13623664 5.29629308 5.50545549 5.3125 9.125 C5.32925781 9.99382812 5.34601563 10.86265625 5.36328125 11.7578125 C5.24339844 12.49773437 5.12351562 13.23765625 5 14 C4.01 14.66 3.02 15.32 2 16 C2.33 15.01 2.66 14.02 3 13 C3.62466056 7.71375317 3.62466056 7.71375317 1.5 3.125 C1.005 2.75375 0.51 2.3825 0 2 C0 1.34 0 0.68 0 0 Z " fill="#D0D2DC" transform="translate(278,96)"/>
<path d="M0 0 C-8.261959 4.59225513 -8.261959 4.59225513 -13 4 C-9.0516245 0.65906688 -5.11813443 -1.70604481 0 0 Z " fill="#F2F2F5" transform="translate(90,16)"/>
</svg>
